<svg xmlns="http://www.w3.org/2000/svg" width="80" height="80" viewBox="0 0 80 80" fill="none" webcrx="">
    <path d="M38.6667 20.8333V21.3333H39.1667H40H40.0033C44.7839 21.3333 48.67 25.2195 48.67 30V40.8667C48.67 41.9705 47.7739 42.8667 46.67 42.8667C45.5661 42.8667 44.67 41.9705 44.67 40.8667V30C44.67 27.4272 42.5761 25.3333 40.0033 25.3333H16.67C14.0972 25.3333 12.0033 27.4272 12.0033 30V60C12.0033 62.5728 14.0972 64.6667 16.67 64.6667H40.0033C41.537 64.6667 42.9762 63.9037 43.858 62.6276C44.4838 61.7221 45.7292 61.4943 46.6396 62.1217C47.5454 62.7482 47.7747 63.9963 47.1455 64.9055C45.9849 66.5819 44.2774 67.7528 42.362 68.3027L42 68.4067V68.7833V70C42 71.1039 41.1039 72 40 72C38.8961 72 38 71.1039 38 70V69.1667V68.6667H37.5H19.1667H18.6667V69.1667V70C18.6667 71.1039 17.7705 72 16.6667 72C15.5628 72 14.6667 71.1039 14.6667 70V68.7767V68.3996L14.3041 68.2959C10.672 67.2577 8 63.9499 8 60V30C8 25.2195 11.8861 21.3333 16.6667 21.3333H17.5H18V20.8333V15C18 11.1395 21.1395 8 25 8H31.6667C35.5272 8 38.6667 11.1395 38.6667 15V20.8333ZM34.1667 21.3333H34.6667V20.8333V15C34.6667 13.3439 33.3228 12 31.6667 12H25C23.3439 12 22 13.3439 22 15V20.8333V21.3333H22.5H34.1667Z" fill="#00391B" stroke="#F4F6F0"/>
    <path d="M33.332 36.332C34.4359 36.332 35.332 37.2282 35.332 38.332V51.6654C35.332 52.7692 34.4359 53.6654 33.332 53.6654C32.2282 53.6654 31.332 52.7692 31.332 51.6654V38.332C31.332 37.2282 32.2282 36.332 33.332 36.332ZM23.332 36.332C24.4359 36.332 25.332 37.2282 25.332 38.332V51.6654C25.332 52.7692 24.4359 53.6654 23.332 53.6654C22.2282 53.6654 21.332 52.7692 21.332 51.6654V38.332C21.332 37.2282 22.2282 36.332 23.332 36.332Z" fill="#F61B00" stroke="#F4F6F0"/>
    <path d="M69.1567 41.2812L57.81 39.1719C55.99 38.1452 53.82 38.1452 52 39.1719L40.8467 41.2812C38.7833 42.4446 37.5 44.7279 37.5 47.2412V48.3346C37.5 59.7146 44.4167 69.6146 54.32 72.4079C54.54 72.4712 54.77 72.5012 55 72.5012C55.23 72.5012 55.4567 72.4679 55.68 72.4079C65.5833 69.6146 72.5 59.7146 72.5 48.3346V47.2412C72.5 44.7279 71.22 42.4446 69.1567 41.2812ZM67.5033 48.3346C69.1567 44.9995 62.3033 40.0495 54.91 42.4995C47.5167 40.0528 41.5 43.9995 42.5033 48.3346V47.2412C42.5033 46.5512 42.8267 45.9079 43.3067 45.6379L54.46 43.5285C54.6067 43.4452 54.7567 43.4052 54.91 43.4052C55.0633 43.4052 55.2133 43.4452 55.3567 43.5285L66.7033 45.6379C67.1833 45.9079 67.5033 46.5512 67.5033 47.2412V48.3346Z" fill="#00CA59"/>
    <path d="M57.661 35.3735L57.6611 35.3735L68.9111 41.7168L69.1567 41.2813L68.9111 41.7168C70.8056 42.785 72 44.8947 72 47.2413V48.3346C72 59.5223 65.2037 69.2006 55.5472 71.9259C55.3622 71.9754 55.1803 72.0013 55 72.0013C54.8131 72.0013 54.6299 71.9769 54.4583 71.9275L54.4557 71.9267C44.7977 69.2026 38 59.5234 38 48.3346V47.2413C38 44.8952 39.1973 42.7852 41.0922 41.7168L41.0922 41.7168L52.3422 35.3735L52.3423 35.3735C54.0098 34.4328 55.9935 34.4328 57.661 35.3735ZM54.8463 67.8626L55.0034 67.9147L55.1606 67.8626C62.7916 65.3338 68.0033 57.3965 68.0033 48.3346V47.2413C68.0033 46.4251 67.6282 45.5846 66.9485 45.2022L55.7016 38.8606C55.4851 38.7354 55.2498 38.6713 55.0067 38.6713C54.7619 38.6713 54.5275 38.7363 54.3102 38.8596C54.31 38.8597 54.3098 38.8598 54.3097 38.8599L43.0615 45.2022C43.0614 45.2022 43.0613 45.2023 43.0612 45.2024C43.0612 45.2024 43.0611 45.2024 43.0611 45.2024C42.383 45.5841 42.0033 46.4233 42.0033 47.2413V48.3346C42.0033 57.3963 47.215 65.3372 54.8463 67.8626Z" fill="#00391B" stroke="#F4F6F0"/>
    <path d="M61.3216 48.4954L61.4162 48.59C62.1976 49.3714 62.1976 50.6381 61.4162 51.4195L54.7495 58.0862C54.3597 58.476 53.8482 58.6731 53.3364 58.6731C52.8231 58.6731 52.3128 58.4784 51.9245 58.0874L51.9233 58.0862L48.59 54.7529C47.8086 53.9714 47.8086 52.7047 48.59 51.9233C49.3714 51.1419 50.6381 51.1419 51.4195 51.9233L52.9862 53.49L53.3397 53.8435L53.6933 53.49L58.5933 48.59L58.2397 48.2364L58.5933 48.59C59.3418 47.8415 60.5356 47.8099 61.3216 48.4954Z" fill="#FCFFF7" stroke="#00CA59"/>
</svg>