<svg xmlns="http://www.w3.org/2000/svg" width="57" height="80" viewBox="0 0 57 80" fill="none" webcrx="">
    <g clip-path="url(#clip0_2747_81474)">
        <path d="M35.5195 56.7969L41.5088 58.3325V58.3374L35.5245 56.8018L38.4228 60.4951L35.5195 56.8018V56.7969Z" stroke="#00391B" stroke-width="0.987517" stroke-linejoin="round"/>
        <path d="M15.2457 52.5352V65.3136C15.0317 65.1499 14.7696 65.0614 14.5002 65.0618H11.0982C10.8272 65.0614 10.5636 65.1499 10.3477 65.3136V54.1695L15.2457 52.5352ZM14.5002 70.8536C14.7691 70.8558 15.0312 70.769 15.2457 70.6067V78.6649H10.3674V70.6018C10.5833 70.7655 10.8469 70.854 11.1179 70.8536H14.5002ZM48.1498 54.3769V65.3136C47.9339 65.1499 47.6703 65.0614 47.3993 65.0618H44.0022C43.7328 65.0614 43.4707 65.1499 43.2567 65.3136V52.7376L48.1498 54.3769ZM47.3993 70.8536C47.6703 70.854 47.9339 70.7655 48.1498 70.6018V78.6649H43.2567V70.6018C43.4712 70.764 43.7333 70.8508 44.0022 70.8487L47.3993 70.8536ZM11.6462 66.6764C11.6017 66.6764 11.559 66.6941 11.5275 66.7256C11.4961 66.7571 11.4784 66.7998 11.4784 66.8443V69.0711C11.4783 69.1161 11.4959 69.1593 11.5272 69.1916C11.5586 69.2239 11.6013 69.2427 11.6462 69.2439H13.9521C13.9971 69.2427 14.0398 69.2239 14.0711 69.1916C14.1025 69.1593 14.12 69.1161 14.12 69.0711V66.8443C14.12 66.7998 14.1023 66.7571 14.0708 66.7256C14.0393 66.6941 13.9966 66.6764 13.9521 66.6764H11.6462Z" fill="#F61B00"/>
        <path d="M17.2795 51.844C17.1215 52.2044 16.9783 52.5797 16.8548 52.9599C16.9733 52.5795 17.1151 52.2068 17.2795 51.844ZM17.2795 51.844L15.26 52.5204L10.3669 54.1745L7.84375 55.0287M17.2795 51.844C18.2302 49.7006 19.809 47.8962 21.8072 46.6694V46.9064V45.4844M16.3413 57.858C16.1791 56.2136 16.347 54.5533 16.8351 52.9747C16.3493 54.5538 16.1815 56.2136 16.3413 57.858Z" stroke="#00391B" stroke-width="0.987517" stroke-linejoin="round"/>
        <path d="M22.3809 56.7969L22.376 56.8018L16.3867 58.3374V58.3325L22.3809 56.7969Z" stroke="#00391B" stroke-width="0.987517" stroke-linejoin="round"/>
        <path d="M26.6094 48.043C26.9402 48.0726 27.2908 48.0973 27.671 48.1121C27.2908 48.0973 26.9402 48.0775 26.6094 48.043ZM31.2902 48.043C30.9544 48.0775 30.5989 48.0973 30.2138 48.1121C30.6088 48.0973 30.9544 48.0726 31.2902 48.043Z" stroke="#00391B" stroke-width="0.987517" stroke-linejoin="round"/>
        <path d="M33.5156 60.4996L36.1029 49.3555L33.5206 60.4996H33.5156Z" stroke="#00391B" stroke-width="0.987517" stroke-linejoin="round"/>
        <path d="M50.0794 55.0298L48.1488 54.3829L43.2556 52.7437L40.6288 51.845C39.6819 49.6966 38.1024 47.8881 36.1011 46.6606V46.9074M36.1011 46.9074V45.4805M36.1011 46.9074V49.3762L33.5138 60.5204L29.2971 78.6857H28.6009L24.3842 60.5154L21.7969 49.3762V46.9074V45.4805C22.1799 45.9308 22.6011 46.3471 23.056 46.7247C24.004 47.4632 25.1468 47.9093 26.3444 48.0085L26.5962 48.0381C26.927 48.0727 27.2776 48.0925 27.6578 48.1073C27.959 48.1073 28.2799 48.1073 28.6157 48.1073H29.2576C29.5884 48.1073 29.9044 48.1073 30.2006 48.1073C30.5858 48.1073 30.9413 48.0727 31.277 48.0381L31.5289 48.0085C32.9545 47.8913 34.295 47.2821 35.3209 46.2853C35.5678 46.0434 35.8147 45.7915 36.0714 45.4805V46.9074H36.1011Z" stroke="#00391B" stroke-width="0.987517" stroke-linejoin="round"/>
        <path d="M29.2969 78.6654L33.5136 60.5L29.3018 78.6654H29.2969Z" stroke="#00391B" stroke-width="0.987517" stroke-linejoin="round"/>
        <path d="M36.1029 49.3555L33.5206 60.4996H33.5156L36.1029 49.3555Z" stroke="#00391B" stroke-width="0.987517" stroke-linejoin="round"/>
        <path d="M15.4024 27.215H15.4518C15.5219 27.2191 15.5915 27.2306 15.6592 27.2495H15.6987C15.9488 27.3259 16.1819 27.45 16.385 27.6149C16.4097 28.2025 16.7059 35.12 16.7356 35.515C16.6643 35.5387 16.5917 35.5585 16.5183 35.5743C16.2735 35.6076 16.0243 35.5734 15.7974 35.4755C14.7803 35.0904 13.8224 33.6289 13.5459 31.7625C13.1756 29.4616 13.9014 27.4322 15.1753 27.2248C15.2504 27.2133 15.3266 27.21 15.4024 27.215ZM42.4999 27.215H42.4604C42.3902 27.2191 42.3207 27.2306 42.253 27.2495H42.2184C41.9674 27.3238 41.7339 27.448 41.5321 27.6149C41.5321 28.2025 41.2112 35.12 41.1815 35.515C41.2524 35.54 41.325 35.5598 41.3988 35.5743C41.6434 35.614 41.8942 35.5867 42.1246 35.4953C43.1121 35.1102 44.07 33.6486 44.3712 31.7822C44.7465 29.4813 44.0207 27.452 42.7468 27.2446C42.666 27.2243 42.5831 27.2144 42.4999 27.215ZM40.7075 24.6523L40.673 28.3852C40.4853 30.0787 40.0459 34.0683 39.5818 35.5496C39.1176 37.0309 36.4415 39.7021 34.4911 38.5121C32.9049 37.5744 31.1128 37.0403 29.2721 36.9568H29.1289H28.9314H28.729H28.6351C26.7911 37.0393 24.9956 37.5734 23.4062 38.5121C21.4608 39.6922 18.7945 37.0605 18.3205 35.5496C17.8465 34.0387 17.4021 30.0837 17.2293 28.3901L17.1948 24.6573L40.7075 24.6523Z" stroke="#00391B" stroke-width="2" stroke-linejoin="round"/>
        <path d="M26.7896 39.0084C26.5956 38.9822 26.3982 38.9979 26.2107 39.0542C26.0232 39.1106 25.85 39.2064 25.7026 39.3352C25.5552 39.4641 25.437 39.6229 25.3561 39.8012C25.2751 39.9795 25.2333 40.173 25.2333 40.3687C25.2333 40.5645 25.2751 40.758 25.3561 40.9363C25.437 41.1145 25.5552 41.2734 25.7026 41.4023C25.85 41.5311 26.0232 41.6269 26.2107 41.6833C26.3982 41.7396 26.5956 41.7552 26.7896 41.729H31.105C31.299 41.7552 31.4964 41.7396 31.6839 41.6833C31.8714 41.6269 32.0446 41.5311 32.1921 41.4023C32.3395 41.2734 32.4576 41.1145 32.5385 40.9363C32.6195 40.758 32.6614 40.5645 32.6614 40.3687C32.6614 40.173 32.6195 39.9795 32.5385 39.8012C32.4576 39.6229 32.3395 39.4641 32.1921 39.3352C32.0446 39.2064 31.8714 39.1106 31.6839 39.0542C31.4964 38.9979 31.299 38.9822 31.105 39.0084H26.7896ZM36.0871 45.4915C35.8352 45.7877 35.5933 46.0544 35.3365 46.2963C35.6017 46.0426 35.8539 45.7756 36.092 45.4964L36.0871 45.4915ZM21.8125 45.4915C22.1933 45.944 22.6166 46.359 23.0765 46.7308C22.62 46.3534 22.1971 45.9371 21.8125 45.4866V45.4915Z" stroke="#00391B" stroke-width="0.987517" stroke-linejoin="round"/>
        <path d="M26.7896 39.0084C26.5956 38.9822 26.3982 38.9979 26.2107 39.0542C26.0232 39.1106 25.85 39.2064 25.7026 39.3352C25.5552 39.4641 25.437 39.6229 25.3561 39.8012C25.2751 39.9795 25.2333 40.173 25.2333 40.3687C25.2333 40.5645 25.2751 40.758 25.3561 40.9363C25.437 41.1145 25.5552 41.2734 25.7026 41.4023C25.85 41.5311 26.0232 41.6269 26.2107 41.6833C26.3982 41.7396 26.5956 41.7552 26.7896 41.729H31.105C31.299 41.7552 31.4964 41.7396 31.6839 41.6833C31.8714 41.6269 32.0446 41.5311 32.1921 41.4023C32.3395 41.2734 32.4576 41.1145 32.5385 40.9363C32.6195 40.758 32.6614 40.5645 32.6614 40.3687C32.6614 40.173 32.6195 39.9795 32.5385 39.8012C32.4576 39.6229 32.3395 39.4641 32.1921 39.3352C32.0446 39.2064 31.8714 39.1106 31.6839 39.0542C31.4964 38.9979 31.299 38.9822 31.105 39.0084H26.7896ZM36.0871 45.4915C35.8352 45.7877 35.5933 46.0544 35.3365 46.2963C35.6017 46.0426 35.8539 45.7756 36.092 45.4964L36.0871 45.4915ZM21.8125 45.4915C22.1933 45.944 22.6166 46.359 23.0765 46.7308C22.62 46.3534 22.1971 45.9371 21.8125 45.4866V45.4915Z" stroke="#00391B" stroke-width="0.987517" stroke-linejoin="round"/>
        <path d="M41.5198 27.6211C41.5198 28.2087 41.1989 35.1262 41.1693 35.4916C40.6064 38.148 39.8608 40.2416 38.9079 41.6389C38.0404 42.9673 37.1043 44.2495 36.1033 45.4803C35.8515 45.7766 35.6096 46.0432 35.3528 46.2852C34.3269 47.282 32.9863 47.8911 31.5607 48.0084L31.3089 48.038C30.9732 48.0676 30.6177 48.0923 30.2325 48.1071C29.9363 48.1071 29.6203 48.1071 29.2894 48.1071H28.6377C28.3019 48.1071 27.981 48.1071 27.6798 48.1071C27.2996 48.1071 26.949 48.0676 26.6182 48.038L26.3664 48.0084C25.1688 47.9092 24.026 47.4631 23.078 46.7246C22.6231 46.347 22.2019 45.9307 21.8189 45.4803C20.816 44.2497 19.8782 42.9675 19.0094 41.6389C18.0564 40.2416 17.3109 38.148 16.7529 35.4916C16.7233 35.1262 16.427 28.2087 16.4023 27.6211C16.5745 27.7588 16.7393 27.9055 16.8961 28.0605C16.98 28.1642 17.0689 28.263 17.1529 28.3864V28.3124L17.2319 28.3864C17.3158 29.2357 17.4738 30.6478 17.6664 32.0402C17.8034 33.2243 18.0228 34.3973 18.3231 35.5509C18.8168 37.0716 21.4634 39.7034 23.4088 38.5134C24.9986 37.5764 26.7941 37.044 28.6377 36.963H28.7562H28.9586H29.1561H29.2796C31.1182 37.0458 32.9085 37.5782 34.4937 38.5134C36.4687 39.6935 39.1054 37.0618 39.5843 35.5509C40.0633 34.04 40.4978 30.0849 40.6755 28.3914L40.7545 28.3173V28.3914C40.8321 28.2767 40.9179 28.1678 41.0113 28.0655C41.1727 27.9083 41.3425 27.76 41.5198 27.6211Z" fill="#00391B" stroke="#00391B" stroke-width="0.987517" stroke-linejoin="round"/>
        <path d="M27.8072 78.6647H1.87501V63.1212C1.87292 61.3326 2.43755 59.5893 3.48787 58.1416C4.53818 56.6939 6.02017 55.6161 7.72111 55.0631L7.8248 55.0285L10.3677 54.1743L15.2657 52.54L17.2803 51.8438C17.1194 52.2052 16.9809 52.5763 16.8655 52.9547C16.3774 54.5334 16.2096 56.1936 16.3718 57.838C16.3718 57.9812 16.3718 58.1244 16.4113 58.2725C16.4113 58.2725 16.4113 58.3021 16.4113 58.3169L22.4006 56.7813L19.5022 60.4746L17.5272 63.0027L27.8072 78.6647Z" stroke="#00391B" stroke-width="2" stroke-linejoin="round"/>
        <path d="M26.2118 41.6755C26.3993 41.7318 26.5967 41.7474 26.7907 41.7212H31.1061C31.3002 41.7474 31.4975 41.7318 31.685 41.6755C31.8725 41.6191 32.0458 41.5233 32.1932 41.3944C32.3406 41.2656 32.4587 41.1067 32.5396 40.9285C32.6206 40.7502 32.6625 40.5567 32.6625 40.3609C32.6625 40.1652 32.6206 39.9717 32.5396 39.7934C32.4587 39.6151 32.3406 39.4563 32.1932 39.3274C32.0458 39.1986 31.8725 39.1028 31.685 39.0464C31.4975 38.99 31.3002 38.9744 31.1061 39.0006H26.7907C26.5967 38.9744 26.3993 38.99 26.2118 39.0464C26.0243 39.1028 25.8511 39.1986 25.7037 39.3274C25.5563 39.4563 25.4381 39.6151 25.3572 39.7934C25.2763 39.9717 25.2344 40.1652 25.2344 40.3609C25.2344 40.5567 25.2763 40.7502 25.3572 40.9285C25.4381 41.1067 25.5563 41.2656 25.7037 41.3944C25.8511 41.5233 26.0243 41.6191 26.2118 41.6755Z" fill="#F4F6F0" stroke="#00391B" stroke-linejoin="round"/>
        <path d="M56.0254 78.6647H30.1179L40.4325 63.0274L38.4574 60.4993L35.5492 56.806L41.5336 58.3416C41.8277 56.1338 41.5154 53.8875 40.63 51.8438L43.2568 52.7276L48.1499 54.3669L50.0805 55.0137L50.1842 55.0482C51.6805 55.5351 53.0113 56.4298 54.0267 57.6319C54.7889 58.5343 55.3893 59.583 55.7385 60.7083C55.9703 61.4552 56 62.2448 56 63.0268V72.7594V75.9194V76L56.0254 78.6647ZM56.0254 78.6647L49.0486 78.64M16.8506 52.9745C16.3648 54.5536 16.197 56.2133 16.3568 57.8577C16.1946 56.2133 16.3625 54.5531 16.8506 52.9745ZM17.2801 51.8438C17.1221 52.2042 16.9789 52.5794 16.8555 52.9596C16.9739 52.5793 17.1157 52.2066 17.2801 51.8438Z" stroke="#00391B" stroke-width="2" stroke-linejoin="round"/>
        <path d="M38.4228 60.4941L35.5195 56.8008H35.5245L38.4228 60.4941Z" stroke="#00391B" stroke-width="0.987517" stroke-linejoin="round"/>
        <path d="M28.598 78.6615H27.8031L17.4885 63.0241L19.4635 60.4961L22.3619 56.8028L16.3676 58.3384C16.3676 58.3384 16.3676 58.3087 16.3676 58.2939C16.3676 58.1458 16.338 58.0026 16.3281 57.8594C16.1683 56.215 16.3361 54.5553 16.8219 52.9761C16.9453 52.5959 17.0885 52.2207 17.2465 51.8602C18.1969 49.7125 19.7777 47.9045 21.7792 46.6758V49.3717L28.598 78.6615Z" stroke="#00391B" stroke-width="2" stroke-linejoin="round"/>
        <path d="M16.8506 52.973C16.3648 54.5522 16.197 56.2119 16.3568 57.8563C16.1946 56.2119 16.3625 54.5517 16.8506 52.973ZM17.2801 51.8423C17.1221 52.2028 16.9789 52.578 16.8555 52.9582C16.9739 52.5779 17.1157 52.2052 17.2801 51.8423ZM35.5492 56.7799L38.4525 60.4732L40.4275 63.0013L30.1179 78.6633H29.3032L33.5149 60.4979L36.1022 49.3735V46.6875C38.1036 47.915 39.683 49.7236 40.63 51.872C41.5051 53.9117 41.8105 56.1505 41.5138 58.3501L35.5492 56.7799Z" stroke="#00391B" stroke-width="2" stroke-linejoin="round"/>
        <path d="M33.5136 60.5L29.3018 78.6654H29.2969L33.5136 60.5Z" stroke="#00391B" stroke-width="0.987517" stroke-linejoin="round"/>
        <path d="M36.1029 49.3555L33.5206 60.4996H33.5156L36.1029 49.3555Z" stroke="#00391B" stroke-width="2" stroke-linejoin="round"/>
        <path d="M38.4228 60.4941L35.5195 56.8008H35.5245L38.4228 60.4941Z" stroke="#00391B" stroke-width="0.987517" stroke-linejoin="round"/>
        <path d="M15.7507 66.3144V69.6176C15.7485 69.8088 15.7029 69.9971 15.6174 70.1681C15.5318 70.3392 15.4086 70.4886 15.257 70.6051C15.0425 70.7674 14.7803 70.8542 14.5114 70.852H11.0995C10.8359 70.8495 10.5799 70.7631 10.3688 70.6051C10.2166 70.4891 10.0929 70.3398 10.0074 70.1686C9.92178 69.9975 9.8765 69.809 9.875 69.6176V66.3292C9.87613 66.1377 9.92125 65.9491 10.0069 65.7779C10.0925 65.6067 10.2163 65.4574 10.3688 65.3417C10.5847 65.1779 10.8483 65.0895 11.1193 65.0898H14.5213C14.7907 65.0895 15.0528 65.178 15.2668 65.3417C15.4163 65.4561 15.5377 65.6033 15.6215 65.7719C15.7054 65.9405 15.7496 66.1261 15.7507 66.3144Z" stroke="#00391B" stroke-width="2" stroke-linejoin="round"/>
        <path d="M46.9438 66.7587C46.9132 66.7281 46.8718 66.7109 46.8285 66.7109H44.577C44.5338 66.7109 44.4923 66.7281 44.4618 66.7587C44.4312 66.7892 44.4141 66.8307 44.4141 66.8739V69.0514C44.414 69.095 44.4311 69.137 44.4615 69.1683C44.4919 69.1997 44.5333 69.2179 44.577 69.2192H46.8285C46.8722 69.2179 46.9136 69.1997 46.9441 69.1683C46.9745 69.137 46.9915 69.095 46.9915 69.0514V66.8739C46.9915 66.8307 46.9743 66.7892 46.9438 66.7587Z" fill="#F61B00"/>
        <path d="M48.6529 66.3168V69.62C48.6514 69.8114 48.6061 69.9999 48.5205 70.171C48.435 70.3422 48.3113 70.4915 48.1592 70.6075C47.9432 70.7713 47.6796 70.8597 47.4086 70.8594H44.0116C43.7426 70.8615 43.4805 70.7747 43.266 70.6125C43.1138 70.4965 42.9902 70.3471 42.9046 70.176C42.819 70.0048 42.7737 69.8163 42.7722 69.625V66.3365C42.7774 66.006 42.9113 65.6904 43.1455 65.4571C43.3798 65.2238 43.6958 65.0911 44.0264 65.0873H47.3988C47.6697 65.087 47.9334 65.1754 48.1493 65.3391C48.3022 65.4529 48.4272 65.6001 48.5145 65.7696C48.6018 65.939 48.6491 66.1262 48.6529 66.3168ZM31.2775 2.24173C31.2692 2.42668 31.1937 2.60224 31.0652 2.73549C30.769 2.70586 30.4678 2.68611 30.1666 2.67624C30.0481 2.67624 29.9296 2.67624 29.8111 2.67624H28.236C28.1175 2.67624 27.999 2.67624 27.8805 2.67624C27.5793 2.67624 27.2781 2.70586 26.9818 2.73549C26.8533 2.60224 26.7778 2.42668 26.7695 2.24173C26.7774 2.11099 26.8164 1.98403 26.8834 1.87149C26.9505 1.75895 27.0435 1.66411 27.1547 1.59491C27.422 1.41679 27.737 1.32383 28.0582 1.32828H30.0333C30.7097 1.32828 31.2775 1.7381 31.2775 2.24173Z" stroke="#00391B" stroke-width="2" stroke-linejoin="round"/>
        <path d="M50.7203 21.2656H7.17578V24.6479H50.7203V21.2656Z" stroke="#00391B" stroke-width="2" stroke-linejoin="round"/>
        <path d="M50.7203 21.2766H7.17578L15.4364 16.418H42.4647L50.7203 21.2766Z" stroke="#00391B" stroke-width="2" stroke-linejoin="round"/>
        <path d="M42.6138 15.466V16.414H15.457V15.466C15.4598 12.2946 16.6403 9.23722 18.7697 6.88702C20.8991 4.53682 23.8256 3.06132 26.9814 2.74675C27.2776 2.71712 27.5788 2.69738 27.88 2.6875C27.9985 2.6875 28.117 2.6875 28.2355 2.6875H29.8106C29.9291 2.6875 30.0476 2.6875 30.1661 2.6875C30.4673 2.6875 30.7685 2.71712 31.0647 2.74675C33.9769 3.02853 36.7042 4.30113 38.791 6.35192C40.8777 8.40271 42.1975 11.1075 42.5298 14.0143C42.583 14.4964 42.611 14.981 42.6138 15.466Z" fill="#00CA59" stroke="#00391B" stroke-width="2" stroke-linejoin="round"/>
        <path d="M41.6746 14.5V15.2597H16.4994V14.5C16.5018 11.9585 18.0457 9.24875 19.9276 7.36537C21.8095 5.48199 24.3958 4.29957 27.1847 4.04748C27.4465 4.02374 27.7127 4.00791 27.9789 4C28.0836 4 28.1884 4 28.2931 4H29.6851C29.7898 4 29.8945 4 29.9993 4C30.2654 4 30.5316 4.02374 30.7934 4.04748C33.3671 4.27329 35.7774 5.29311 37.6216 6.93655C39.4657 8.58 41.3067 11.0072 41.6004 13.3367C41.6474 13.723 41.6722 14.1113 41.6746 14.5Z" fill="#00CA59" stroke="#FCFFF7" stroke-width="0.6" stroke-linejoin="round"/>
    </g>
    <defs>
        <clipPath id="clip0_2747_81474">
            <rect width="57" height="80" fill="white"/>
        </clipPath>
    </defs>
</svg>