<svg xmlns="http://www.w3.org/2000/svg" width="66" height="80" viewBox="0 0 66 80" fill="none" webcrx="">
    <path d="M63.3309 14.5473V14.5547V54.2177C63.3302 54.2637 63.3071 54.3065 63.2691 54.3323C54.954 59.3392 46.6478 56.6757 37.8067 53.8408L37.7029 53.8075C29.4521 51.1619 20.7327 48.3972 11.9976 53.0987V13.1759C20.016 8.30697 28.0401 10.5914 36.5397 13.3089C36.8521 13.4088 37.1652 13.5093 37.4791 13.6101C45.7178 16.255 54.4387 19.0547 63.1566 14.4663L63.1666 14.4611L63.1764 14.4556C63.2088 14.4377 63.2482 14.4382 63.28 14.4571C63.3118 14.476 63.3312 14.5103 63.3309 14.5473Z" fill="#00CA59" stroke="#F4F6F0" stroke-width="2"/>
    <path fill-rule="evenodd" clip-rule="evenodd" d="M13.6641 7.32824C13.6641 10.6419 10.9778 13.3282 7.66406 13.3282C4.35035 13.3282 1.66406 10.6419 1.66406 7.32824C1.66406 4.01453 4.35035 1.32823 7.66406 1.32823C9.2583 1.31858 10.79 1.94762 11.9174 3.07494C13.0447 4.20226 13.6737 5.734 13.6641 7.32824Z" fill="#F61B00"/>
    <path d="M64.4916 12.4645C63.7533 12.0111 62.8297 11.9842 62.0663 12.3939C54.2196 16.5272 46.3743 14.0112 38.0663 11.3472C30.4663 8.90719 22.6316 6.41786 14.7223 9.30052C15.7112 5.77762 13.9518 2.06484 10.5991 0.599266C7.24637 -0.866313 3.32632 0.36383 1.41208 3.48222C-0.502156 6.60062 0.175242 10.6529 2.99963 12.9792V75.9939C3.01979 77.1364 3.55973 78.2075 4.4663 78.9032C5.37499 79.6254 6.50568 80.0108 7.6663 79.9939C10.0538 80.1605 12.1325 78.3787 12.333 75.9939V55.6072C20.4903 50.7552 28.6396 53.3485 37.2583 56.1112C42.4436 57.7739 47.7303 59.4685 53.077 59.4685C57.1006 59.5058 61.054 58.4133 64.4876 56.3152C65.2191 55.8686 65.6656 55.0736 65.6663 54.2165V14.5472C65.6703 13.6942 65.2237 12.9023 64.4916 12.4645ZM7.6663 2.66052C10.2436 2.66052 12.333 4.74986 12.333 7.32719C12.333 9.90452 10.2436 11.9939 7.6663 11.9939C5.08897 11.9939 2.99963 9.90452 2.99963 7.32719C2.99963 4.74986 5.08897 2.66052 7.6663 2.66052ZM7.6663 77.3272C7.11618 77.3407 6.57782 77.1667 6.13963 76.8339C5.86636 76.6368 5.69332 76.3297 5.6663 75.9939V14.3765C6.97274 14.7552 8.35985 14.7552 9.6663 14.3765V75.9939C9.6663 76.6245 8.84496 77.3272 7.6663 77.3272ZM62.9996 54.0979C54.8463 58.9512 46.6983 56.3365 38.0743 53.5725C29.6956 50.8832 21.0543 48.1272 12.333 52.5539V13.3832C20.4903 8.52986 28.6396 11.1165 37.2583 13.8885C45.6223 16.5712 54.2676 19.3432 62.9996 14.9179V54.0979Z" fill="#00391B"/>
</svg>