<svg xmlns="http://www.w3.org/2000/svg" width="80" height="80" viewBox="0 0 80 80" fill="none" webcrx="">
    <g clip-path="url(#clip0_2747_81526)">
        <path d="M22 30L17 35L26.5 45L32 40L22 30Z" fill="#F61B00"/>
        <path d="M53 36L48 41L57.5 51L63 46L53 36Z" fill="#F61B00"/>
        <path d="M40 49L35 54L44.5 64L50 59L40 49Z" fill="#00CA59"/>
        <path d="M35 17L30 22L39.5 32L45 27L35 17Z" fill="#00CA59"/>
        <path d="M55 7L43.5 9.5L52 19.5L55 7Z" fill="#F61B00"/>
        <path d="M72.5 25L61 27.5L69.5 37.5L72.5 25Z" fill="#00CA59"/>
        <mask id="path-7-inside-1_2747_81526" fill="white">
            <path d="M46.3064 24.5916L45.8513 24.1365C46.6965 23.8115 47.5416 23.3564 48.2568 22.6412C48.972 21.926 49.4271 21.0809 49.7521 20.2357L51.5075 21.9911C51.9626 22.4462 52.6778 22.6412 53.3929 22.4462C54.1081 22.2511 54.5632 21.666 54.6932 21.0158L57.0987 7.29785L61.2597 3.13694C61.9748 2.42178 61.9748 1.25152 61.2597 0.536367C60.5445 -0.178789 59.3742 -0.178789 58.6591 0.536367L54.4982 4.69728L40.7802 7.23283C40.13 7.36286 39.5449 7.81796 39.3499 8.53312C39.1548 9.24827 39.2848 9.89842 39.805 10.4185L41.5603 12.1739C40.7152 12.499 39.87 12.9541 39.1548 13.6692C38.4397 14.3844 37.9846 15.2296 37.6595 16.0748L37.1394 15.5547C35.7091 14.1243 33.3685 14.1243 31.9382 15.5547L28.0374 19.4555C26.6071 20.8858 26.6071 23.2263 28.0374 24.6566L28.4925 25.1117C27.6473 25.4368 26.8021 25.8919 26.087 26.6071C25.3718 27.3222 24.9167 28.1674 24.5916 29.0126L24.1365 28.5575C22.7062 27.1272 20.3657 27.1272 18.9354 28.5575L15.0345 32.4584C13.6042 33.8887 13.6042 36.2292 15.0345 37.6595L18.2852 40.9102L14.2544 44.9411C10.6786 42.5356 5.80252 42.9907 2.68184 46.1113C-0.893946 49.6871 -0.893946 55.5384 2.68184 59.1142C6.25762 62.69 12.1089 62.69 15.6847 59.1142C18.8054 55.9935 19.2605 51.1174 16.8549 47.5417L20.9508 43.4458L24.2015 46.6965C25.6319 48.1268 27.9724 48.1268 29.4027 46.6965L33.3035 42.7956C34.7338 41.3653 34.7338 39.0248 33.3035 37.5945L32.8484 37.1394C33.6936 36.8143 34.5388 36.3592 35.254 35.6441C35.9691 34.9289 36.4242 34.0837 36.7493 33.2385L37.2044 33.6936C38.6347 35.1239 40.9752 35.1239 42.4055 33.6936L46.3064 29.7928C47.7367 28.3625 47.7367 26.0219 46.3064 24.5916ZM13.1491 56.4486C11.0037 58.5941 7.49289 58.5941 5.34742 56.4486C3.20195 54.3031 3.20195 50.7924 5.34742 48.6469C7.49289 46.5014 11.0037 46.5014 13.1491 48.6469C15.2946 50.7924 15.2946 54.3031 13.1491 56.4486ZM53.1329 8.66315L51.6375 16.92L44.8761 10.1585L53.1329 8.66315ZM41.7554 16.1398C42.8606 15.0345 44.551 15.0345 45.6562 16.1398C46.7615 17.245 46.7615 18.9354 45.6562 20.0406C44.551 21.1459 42.8606 21.1459 41.7554 20.0406C40.6501 18.9354 40.6501 17.245 41.7554 16.1398ZM26.8021 44.0959L17.7001 34.9939L21.601 31.0931L30.703 40.195L26.8021 44.0959ZM32.6534 33.0435C31.5482 34.1487 29.8578 34.1487 28.7525 33.0435C27.6473 31.9382 27.6473 30.2479 28.7525 29.1426C29.8578 28.0374 31.5482 28.0374 32.6534 29.1426C33.7586 30.2479 33.7586 31.9382 32.6534 33.0435ZM30.703 21.9911L34.6038 18.0902L43.7058 27.1922L39.805 31.0931L30.703 21.9911ZM60.6095 51.8976L64.5104 47.9967C65.9407 46.5664 65.9407 44.2259 64.5104 42.7956L64.0553 42.3405C64.9005 42.0154 65.7456 41.5603 66.4608 40.8452C67.1759 40.13 67.631 39.2848 67.9561 38.4397L69.7115 40.195C70.1666 40.6501 70.8818 40.8452 71.5969 40.6501C72.2471 40.3901 72.7672 39.87 72.8972 39.2198L75.3027 25.5018L79.4636 21.3409C80.1788 20.6258 80.1788 19.4555 79.4636 18.7403C78.7485 18.0252 77.5782 18.0252 76.8631 18.7403L72.7022 22.9013L58.9842 25.4368C58.334 25.5668 57.7489 26.0219 57.5538 26.7371C57.2938 27.3872 57.4888 28.1024 58.0089 28.6225L59.7643 30.3779C58.9191 30.703 58.074 31.1581 57.3588 31.8732C56.6436 32.5884 56.1885 33.4336 55.8635 34.2787L55.3434 33.7586C53.913 32.3283 51.5725 32.3283 50.1422 33.7586L46.2414 37.6595C44.8111 39.0898 44.8111 41.4303 46.2414 42.8606L46.6965 43.3157C45.8513 43.6408 45.0061 44.0959 44.2909 44.8111C43.5758 45.5262 43.1207 46.3714 42.7956 47.2166L42.3405 46.7615C40.9102 45.3312 38.5697 45.3312 37.1394 46.7615L33.2385 50.6623C31.8082 52.0926 31.8082 54.4332 33.2385 55.8635L36.4892 59.1142L32.4583 63.1451C28.8826 60.7395 24.0065 61.1946 20.8858 64.3153C17.31 67.8911 17.31 73.7424 20.8858 77.3182C24.4616 80.894 30.3129 80.894 33.8887 77.3182C37.0093 74.1975 37.4644 69.3214 35.0589 65.7456L39.1548 61.6497L42.4055 64.9005C43.8358 66.3308 46.1763 66.3308 47.6067 64.9005L51.5075 60.9996C52.9378 59.5693 52.9378 57.2288 51.5075 55.7985L51.0524 55.3434C51.8976 55.0183 52.7428 54.5632 53.4579 53.848C54.1731 53.1329 54.6282 52.2877 54.9533 51.4425L55.4084 51.8976C56.8387 53.3279 59.1792 53.3279 60.6095 51.8976ZM31.3531 74.6526C29.2076 76.798 25.6969 76.798 23.5514 74.6526C21.4059 72.5071 21.4059 68.9963 23.5514 66.8509C25.6969 64.7054 29.2076 64.7054 31.3531 66.8509C33.4986 68.9963 33.4986 72.5071 31.3531 74.6526ZM71.3369 26.8671L69.8415 35.1239L63.0801 28.3625L71.3369 26.8671ZM59.9594 34.3438C61.0646 33.2385 62.755 33.2385 63.8602 34.3438C64.9655 35.449 64.9655 37.1394 63.8602 38.2446C62.755 39.3499 61.0646 39.3499 59.9594 38.2446C58.8541 37.1394 58.8541 35.449 59.9594 34.3438ZM52.8078 36.2942L61.9098 45.3962L58.0089 49.297L48.9069 40.195L52.8078 36.2942ZM45.0061 62.2999L35.9041 53.1979L39.805 49.297L48.9069 58.399L45.0061 62.2999ZM50.8574 51.2475C49.7521 52.3527 48.0618 52.3527 46.9565 51.2475C45.8513 50.1422 45.8513 48.4519 46.9565 47.3466C48.0618 46.2414 49.7521 46.2414 50.8574 47.3466C51.9626 48.4519 51.9626 50.1422 50.8574 51.2475Z"/>
        </mask>
        <path d="M46.3064 24.5916L45.8513 24.1365C46.6965 23.8115 47.5416 23.3564 48.2568 22.6412C48.972 21.926 49.4271 21.0809 49.7521 20.2357L51.5075 21.9911C51.9626 22.4462 52.6778 22.6412 53.3929 22.4462C54.1081 22.2511 54.5632 21.666 54.6932 21.0158L57.0987 7.29785L61.2597 3.13694C61.9748 2.42178 61.9748 1.25152 61.2597 0.536367C60.5445 -0.178789 59.3742 -0.178789 58.6591 0.536367L54.4982 4.69728L40.7802 7.23283C40.13 7.36286 39.5449 7.81796 39.3499 8.53312C39.1548 9.24827 39.2848 9.89842 39.805 10.4185L41.5603 12.1739C40.7152 12.499 39.87 12.9541 39.1548 13.6692C38.4397 14.3844 37.9846 15.2296 37.6595 16.0748L37.1394 15.5547C35.7091 14.1243 33.3685 14.1243 31.9382 15.5547L28.0374 19.4555C26.6071 20.8858 26.6071 23.2263 28.0374 24.6566L28.4925 25.1117C27.6473 25.4368 26.8021 25.8919 26.087 26.6071C25.3718 27.3222 24.9167 28.1674 24.5916 29.0126L24.1365 28.5575C22.7062 27.1272 20.3657 27.1272 18.9354 28.5575L15.0345 32.4584C13.6042 33.8887 13.6042 36.2292 15.0345 37.6595L18.2852 40.9102L14.2544 44.9411C10.6786 42.5356 5.80252 42.9907 2.68184 46.1113C-0.893946 49.6871 -0.893946 55.5384 2.68184 59.1142C6.25762 62.69 12.1089 62.69 15.6847 59.1142C18.8054 55.9935 19.2605 51.1174 16.8549 47.5417L20.9508 43.4458L24.2015 46.6965C25.6319 48.1268 27.9724 48.1268 29.4027 46.6965L33.3035 42.7956C34.7338 41.3653 34.7338 39.0248 33.3035 37.5945L32.8484 37.1394C33.6936 36.8143 34.5388 36.3592 35.254 35.6441C35.9691 34.9289 36.4242 34.0837 36.7493 33.2385L37.2044 33.6936C38.6347 35.1239 40.9752 35.1239 42.4055 33.6936L46.3064 29.7928C47.7367 28.3625 47.7367 26.0219 46.3064 24.5916ZM13.1491 56.4486C11.0037 58.5941 7.49289 58.5941 5.34742 56.4486C3.20195 54.3031 3.20195 50.7924 5.34742 48.6469C7.49289 46.5014 11.0037 46.5014 13.1491 48.6469C15.2946 50.7924 15.2946 54.3031 13.1491 56.4486ZM53.1329 8.66315L51.6375 16.92L44.8761 10.1585L53.1329 8.66315ZM41.7554 16.1398C42.8606 15.0345 44.551 15.0345 45.6562 16.1398C46.7615 17.245 46.7615 18.9354 45.6562 20.0406C44.551 21.1459 42.8606 21.1459 41.7554 20.0406C40.6501 18.9354 40.6501 17.245 41.7554 16.1398ZM26.8021 44.0959L17.7001 34.9939L21.601 31.0931L30.703 40.195L26.8021 44.0959ZM32.6534 33.0435C31.5482 34.1487 29.8578 34.1487 28.7525 33.0435C27.6473 31.9382 27.6473 30.2479 28.7525 29.1426C29.8578 28.0374 31.5482 28.0374 32.6534 29.1426C33.7586 30.2479 33.7586 31.9382 32.6534 33.0435ZM30.703 21.9911L34.6038 18.0902L43.7058 27.1922L39.805 31.0931L30.703 21.9911ZM60.6095 51.8976L64.5104 47.9967C65.9407 46.5664 65.9407 44.2259 64.5104 42.7956L64.0553 42.3405C64.9005 42.0154 65.7456 41.5603 66.4608 40.8452C67.1759 40.13 67.631 39.2848 67.9561 38.4397L69.7115 40.195C70.1666 40.6501 70.8818 40.8452 71.5969 40.6501C72.2471 40.3901 72.7672 39.87 72.8972 39.2198L75.3027 25.5018L79.4636 21.3409C80.1788 20.6258 80.1788 19.4555 79.4636 18.7403C78.7485 18.0252 77.5782 18.0252 76.8631 18.7403L72.7022 22.9013L58.9842 25.4368C58.334 25.5668 57.7489 26.0219 57.5538 26.7371C57.2938 27.3872 57.4888 28.1024 58.0089 28.6225L59.7643 30.3779C58.9191 30.703 58.074 31.1581 57.3588 31.8732C56.6436 32.5884 56.1885 33.4336 55.8635 34.2787L55.3434 33.7586C53.913 32.3283 51.5725 32.3283 50.1422 33.7586L46.2414 37.6595C44.8111 39.0898 44.8111 41.4303 46.2414 42.8606L46.6965 43.3157C45.8513 43.6408 45.0061 44.0959 44.2909 44.8111C43.5758 45.5262 43.1207 46.3714 42.7956 47.2166L42.3405 46.7615C40.9102 45.3312 38.5697 45.3312 37.1394 46.7615L33.2385 50.6623C31.8082 52.0926 31.8082 54.4332 33.2385 55.8635L36.4892 59.1142L32.4583 63.1451C28.8826 60.7395 24.0065 61.1946 20.8858 64.3153C17.31 67.8911 17.31 73.7424 20.8858 77.3182C24.4616 80.894 30.3129 80.894 33.8887 77.3182C37.0093 74.1975 37.4644 69.3214 35.0589 65.7456L39.1548 61.6497L42.4055 64.9005C43.8358 66.3308 46.1763 66.3308 47.6067 64.9005L51.5075 60.9996C52.9378 59.5693 52.9378 57.2288 51.5075 55.7985L51.0524 55.3434C51.8976 55.0183 52.7428 54.5632 53.4579 53.848C54.1731 53.1329 54.6282 52.2877 54.9533 51.4425L55.4084 51.8976C56.8387 53.3279 59.1792 53.3279 60.6095 51.8976ZM31.3531 74.6526C29.2076 76.798 25.6969 76.798 23.5514 74.6526C21.4059 72.5071 21.4059 68.9963 23.5514 66.8509C25.6969 64.7054 29.2076 64.7054 31.3531 66.8509C33.4986 68.9963 33.4986 72.5071 31.3531 74.6526ZM71.3369 26.8671L69.8415 35.1239L63.0801 28.3625L71.3369 26.8671ZM59.9594 34.3438C61.0646 33.2385 62.755 33.2385 63.8602 34.3438C64.9655 35.449 64.9655 37.1394 63.8602 38.2446C62.755 39.3499 61.0646 39.3499 59.9594 38.2446C58.8541 37.1394 58.8541 35.449 59.9594 34.3438ZM52.8078 36.2942L61.9098 45.3962L58.0089 49.297L48.9069 40.195L52.8078 36.2942ZM45.0061 62.2999L35.9041 53.1979L39.805 49.297L48.9069 58.399L45.0061 62.2999ZM50.8574 51.2475C49.7521 52.3527 48.0618 52.3527 46.9565 51.2475C45.8513 50.1422 45.8513 48.4519 46.9565 47.3466C48.0618 46.2414 49.7521 46.2414 50.8574 47.3466C51.9626 48.4519 51.9626 50.1422 50.8574 51.2475Z" fill="#00391B" stroke="#F4F6F0" stroke-width="0.8" mask="url(#path-7-inside-1_2747_81526)"/>
    </g>
    <defs>
        <clipPath id="clip0_2747_81526">
            <rect width="80" height="80" fill="white"/>
        </clipPath>
    </defs>
</svg>