<?xml version="1.0" encoding="utf-8"?>

<!-- Uploaded to: SVG Repo, www.svgrepo.com, Generator: SVG Repo Mixer Tools -->
<svg height="800px" width="800px" version="1.1" id="Layer_1" xmlns="http://www.w3.org/2000/svg" xmlns:xlink="http://www.w3.org/1999/xlink" 
	 viewBox="0 0 100 100" enable-background="new 0 0 100 100" xml:space="preserve">
<g>
	<circle fill="#F4A671" cx="50" cy="12.46" r="6.952"/>
	<path fill="#F4A671" d="M34.958,28.218l0,14.632c0,1.781,1.271,3.376,3.037,3.609c2.138,0.283,3.981-1.393,3.981-3.478v26.366
		c0,0.158,0.005,0.315,0.014,0.471c0.296,5.114,8.01,4.775,8.01-0.347c0,5.122,7.713,5.461,8.01,0.347
		c0.009-0.156,0.014-0.313,0.014-0.471V42.982c0,2.085,1.843,3.761,3.981,3.478c1.766-0.234,3.037-1.828,3.037-3.609V28.218
		c0-2.734-2.217-4.95-4.951-4.95H39.909C37.175,23.267,34.958,25.484,34.958,28.218z"/>
	<path fill="#3792CF" d="M50,78.743c-16.503,0-29.881-3.014-29.881-6.732v11.617c0,3.718,13.378,6.732,29.881,6.732
		s29.881-3.014,29.881-6.732V72.011C79.881,75.729,66.503,78.743,50,78.743z"/>
	<path fill="#6AC9CC" d="M58.024,65.526v3.821c0,0.158-0.005,0.315-0.014,0.471C57.714,74.933,50,74.594,50,69.472
		c0,5.122-7.713,5.461-8.01,0.347c-0.009-0.156-0.014-0.313-0.014-0.471v-3.821c-12.605,0.79-21.857,3.393-21.857,6.485
		c0,3.718,13.378,6.732,29.881,6.732s29.881-3.014,29.881-6.732C79.881,68.919,70.628,66.316,58.024,65.526z"/>
	<circle fill="#FEE36F" cx="17.704" cy="17.705" r="9.036"/>
	<path fill="#136296" d="M50,19.917c4.112,0,7.458-3.345,7.458-7.457S54.112,5.002,50,5.002s-7.458,3.345-7.458,7.457
		S45.888,19.917,50,19.917z M50,6.014c3.555,0,6.447,2.892,6.447,6.446S53.555,18.906,50,18.906s-6.447-2.892-6.447-6.446
		S46.446,6.014,50,6.014z"/>
	<g>
		<path fill="#136296" d="M80.386,83.628V82.8h14.108c0.279,0,0.506-0.226,0.506-0.506s-0.226-0.506-0.506-0.506H80.386v-9.778
			c0-4.063-11.664-6.274-21.857-6.957V45.639c0.113,0.127,0.234,0.248,0.363,0.361c0.87,0.763,2.029,1.112,3.179,0.961
			c1.982-0.262,3.477-2.029,3.477-4.111V28.218c0-3.009-2.448-5.456-5.456-5.456H39.909c-3.009,0-5.456,2.447-5.456,5.456V42.85
			c0,2.081,1.495,3.848,3.477,4.111c1.152,0.153,2.309-0.197,3.179-0.961c0.129-0.113,0.25-0.234,0.363-0.361v19.414
			c-10.193,0.683-21.857,2.895-21.857,6.957v9.778H5.506C5.227,81.789,5,82.015,5,82.294S5.227,82.8,5.506,82.8h14.108v0.828
			c0,4.701,15.656,7.238,30.386,7.238S80.386,88.329,80.386,83.628z M40.442,45.239c-0.661,0.579-1.507,0.833-2.38,0.719
			c-1.481-0.196-2.598-1.532-2.598-3.108V28.218c0-2.451,1.994-4.445,4.445-4.445h20.183c2.451,0,4.445,1.994,4.445,4.445V42.85
			c0,1.576-1.117,2.912-2.598,3.108c-0.873,0.116-1.719-0.139-2.38-0.719c-0.654-0.573-1.029-1.396-1.029-2.258V31.727
			c0-0.279-0.226-0.506-0.506-0.506s-0.506,0.226-0.506,0.506v11.254v22.545v3.821c0,0.149-0.004,0.296-0.013,0.442
			c-0.132,2.271-1.87,3.236-3.53,3.191c-1.671-0.048-3.469-1.167-3.469-3.509V47.289c0-0.279-0.226-0.506-0.506-0.506
			c-0.279,0-0.506,0.226-0.506,0.506v22.183c0,2.342-1.799,3.461-3.469,3.509c-1.659,0.038-3.398-0.92-3.53-3.191
			c-0.008-0.147-0.013-0.294-0.013-0.443v-3.821V42.982V31.727c0-0.279-0.226-0.506-0.506-0.506s-0.506,0.226-0.506,0.506v11.254
			C41.471,43.843,41.096,44.666,40.442,45.239z M41.471,66.066v3.282c0,0.168,0.005,0.334,0.014,0.5
			c0.085,1.467,0.705,2.52,1.565,3.197c0.861,0.679,1.961,0.982,3.004,0.947c1.573-0.045,3.16-0.854,3.946-2.355
			c0.785,1.501,2.373,2.31,3.946,2.355c0.047,0.001,0.094,0.002,0.141,0.002c0.034,0,0.067-0.003,0.101-0.004
			c0.081-0.001,0.162-0.004,0.244-0.01c0.036-0.003,0.072-0.006,0.109-0.01c0.099-0.009,0.197-0.02,0.296-0.035
			c0.021-0.003,0.041-0.007,0.062-0.011c0.112-0.018,0.223-0.04,0.334-0.067c0.009-0.002,0.018-0.005,0.027-0.007
			c0.12-0.029,0.239-0.063,0.357-0.102c0.002-0.001,0.004-0.001,0.006-0.002c0.247-0.082,0.488-0.185,0.72-0.309
			c0.001,0,0.001-0.001,0.002-0.001c0.115-0.062,0.227-0.129,0.337-0.202c0.004-0.003,0.008-0.006,0.012-0.009
			c0.105-0.071,0.208-0.146,0.307-0.227c0.009-0.008,0.018-0.016,0.027-0.024c0.093-0.077,0.184-0.158,0.271-0.245
			c0.015-0.015,0.029-0.032,0.044-0.047c0.079-0.082,0.157-0.166,0.23-0.255c0.02-0.025,0.038-0.053,0.058-0.078
			c0.065-0.084,0.129-0.169,0.188-0.259c0.025-0.038,0.046-0.079,0.069-0.118c0.05-0.083,0.101-0.166,0.146-0.255
			c0.027-0.053,0.049-0.111,0.074-0.166c0.036-0.081,0.075-0.159,0.107-0.244c0.027-0.071,0.048-0.148,0.072-0.222
			c0.024-0.075,0.051-0.148,0.072-0.226c0.025-0.096,0.043-0.198,0.063-0.299c0.012-0.063,0.029-0.122,0.039-0.187
			c0.026-0.169,0.045-0.343,0.056-0.525c0.009-0.165,0.014-0.332,0.014-0.5v-3.282c13.544,0.91,20.846,3.725,20.846,5.945
			c0,0.368-0.188,0.742-0.552,1.113C76.277,75.725,65.147,78.237,50,78.237s-26.277-2.512-28.823-5.113
			c-0.364-0.372-0.552-0.745-0.552-1.113C20.625,69.791,27.927,66.976,41.471,66.066z M50,89.855
			c-17.311,0-29.375-3.281-29.375-6.226v-9.64c0.013,0.012,0.029,0.024,0.043,0.036c0.043,0.039,0.092,0.078,0.138,0.117
			c0.091,0.077,0.185,0.155,0.285,0.23c0.058,0.043,0.119,0.086,0.179,0.129c0.1,0.07,0.204,0.14,0.312,0.209
			c0.067,0.043,0.134,0.085,0.204,0.127c0.116,0.069,0.237,0.138,0.36,0.206c0.07,0.039,0.139,0.078,0.212,0.116
			c0.149,0.077,0.305,0.153,0.464,0.229c0.055,0.026,0.107,0.053,0.164,0.079c0.217,0.1,0.444,0.198,0.68,0.293
			c0.065,0.026,0.135,0.052,0.201,0.078c0.176,0.069,0.353,0.138,0.538,0.205c0.098,0.036,0.199,0.07,0.299,0.105
			c0.162,0.057,0.325,0.113,0.493,0.168c0.111,0.036,0.224,0.072,0.338,0.108c0.168,0.053,0.339,0.105,0.513,0.156
			c0.116,0.034,0.231,0.068,0.35,0.102c0.187,0.053,0.378,0.105,0.571,0.156c0.111,0.03,0.22,0.06,0.332,0.089
			c0.253,0.065,0.512,0.129,0.775,0.191c0.056,0.013,0.11,0.028,0.167,0.041c0.315,0.074,0.638,0.146,0.966,0.216
			c0.123,0.026,0.25,0.052,0.375,0.077c0.213,0.044,0.427,0.088,0.645,0.13c0.147,0.029,0.295,0.056,0.444,0.084
			c0.204,0.038,0.409,0.076,0.616,0.113c0.155,0.028,0.312,0.055,0.469,0.082c0.21,0.036,0.422,0.071,0.636,0.105
			c0.156,0.025,0.312,0.051,0.47,0.075c0.232,0.036,0.468,0.07,0.704,0.105c0.142,0.021,0.283,0.042,0.427,0.062
			c0.37,0.052,0.743,0.102,1.12,0.15c0.119,0.015,0.24,0.029,0.36,0.044c0.272,0.033,0.544,0.067,0.819,0.098
			c0.167,0.019,0.336,0.037,0.505,0.056c0.232,0.025,0.465,0.051,0.7,0.075c0.181,0.019,0.362,0.036,0.544,0.054
			c0.226,0.022,0.453,0.043,0.681,0.064c0.186,0.017,0.372,0.034,0.559,0.05c0.233,0.02,0.467,0.039,0.702,0.058
			c0.182,0.014,0.363,0.029,0.545,0.043c0.265,0.02,0.532,0.038,0.799,0.056c0.153,0.01,0.304,0.022,0.457,0.032
			c0.405,0.026,0.812,0.05,1.22,0.072c0.168,0.009,0.337,0.017,0.505,0.025c0.256,0.013,0.512,0.026,0.769,0.037
			c0.191,0.008,0.382,0.016,0.573,0.023c0.239,0.009,0.478,0.019,0.717,0.027c0.195,0.007,0.391,0.013,0.586,0.019
			c0.236,0.007,0.471,0.013,0.707,0.019c0.197,0.005,0.393,0.01,0.59,0.013c0.244,0.005,0.489,0.008,0.733,0.012
			c0.184,0.003,0.369,0.006,0.553,0.008c0.318,0.003,0.636,0.004,0.954,0.005c0.102,0,0.204,0.002,0.305,0.002
			s0.204-0.001,0.305-0.002c0.318-0.001,0.636-0.002,0.954-0.005c0.184-0.002,0.369-0.005,0.553-0.008
			c0.244-0.003,0.489-0.007,0.733-0.012c0.197-0.004,0.393-0.009,0.59-0.013c0.236-0.006,0.472-0.012,0.707-0.019
			c0.196-0.006,0.391-0.012,0.586-0.019c0.239-0.008,0.478-0.017,0.717-0.027c0.191-0.008,0.382-0.015,0.573-0.023
			c0.257-0.011,0.513-0.024,0.769-0.037c0.168-0.008,0.337-0.016,0.505-0.025c0.408-0.022,0.815-0.046,1.22-0.072
			c0.153-0.01,0.305-0.021,0.457-0.032c0.267-0.018,0.534-0.036,0.799-0.056c0.183-0.014,0.364-0.028,0.545-0.043
			c0.235-0.019,0.469-0.038,0.702-0.058c0.187-0.016,0.373-0.033,0.559-0.05c0.228-0.021,0.455-0.042,0.681-0.064
			c0.182-0.018,0.363-0.035,0.544-0.054c0.235-0.024,0.467-0.049,0.7-0.075c0.168-0.018,0.337-0.036,0.505-0.056
			c0.275-0.032,0.548-0.065,0.819-0.098c0.12-0.015,0.241-0.029,0.36-0.044c0.378-0.048,0.751-0.098,1.12-0.15
			c0.144-0.02,0.284-0.042,0.427-0.062c0.236-0.034,0.471-0.069,0.704-0.105c0.158-0.024,0.314-0.05,0.47-0.075
			c0.214-0.034,0.426-0.069,0.636-0.105c0.157-0.027,0.314-0.054,0.469-0.082c0.207-0.037,0.412-0.074,0.616-0.113
			c0.149-0.028,0.298-0.056,0.444-0.084c0.218-0.042,0.432-0.086,0.645-0.13c0.125-0.026,0.252-0.051,0.375-0.077
			c0.328-0.07,0.651-0.142,0.966-0.216c0.057-0.013,0.111-0.027,0.167-0.041c0.263-0.063,0.522-0.126,0.775-0.191
			c0.113-0.029,0.222-0.059,0.332-0.089c0.193-0.051,0.384-0.103,0.571-0.156c0.118-0.034,0.234-0.068,0.35-0.102
			c0.174-0.051,0.345-0.103,0.513-0.156c0.114-0.036,0.227-0.072,0.338-0.108c0.168-0.055,0.332-0.111,0.493-0.168
			c0.1-0.035,0.201-0.07,0.299-0.105c0.185-0.067,0.362-0.136,0.538-0.205c0.066-0.026,0.136-0.052,0.201-0.078
			c0.235-0.096,0.462-0.194,0.68-0.293c0.057-0.026,0.108-0.053,0.164-0.079c0.159-0.075,0.315-0.151,0.464-0.229
			c0.073-0.038,0.142-0.077,0.212-0.116c0.124-0.068,0.245-0.136,0.36-0.206c0.07-0.042,0.138-0.085,0.204-0.127
			c0.108-0.069,0.212-0.139,0.312-0.209c0.061-0.043,0.122-0.086,0.179-0.129c0.101-0.076,0.194-0.153,0.285-0.23
			c0.046-0.039,0.094-0.077,0.138-0.117c0.013-0.012,0.03-0.024,0.043-0.036v9.64C79.375,86.573,67.311,89.855,50,89.855z"/>
		<path fill="#136296" d="M82.156,85.981c0-0.279-0.226-0.506-0.506-0.506h-1.77c-0.279,0-0.506,0.226-0.506,0.506
			s0.226,0.506,0.506,0.506h1.77C81.93,86.487,82.156,86.26,82.156,85.981z"/>
		<path fill="#136296" d="M89.539,85.981c0-0.279-0.226-0.506-0.506-0.506h-3.691c-0.279,0-0.506,0.226-0.506,0.506
			s0.226,0.506,0.506,0.506h3.691C89.313,86.487,89.539,86.26,89.539,85.981z"/>
		<path fill="#136296" d="M94.494,85.475h-1.77c-0.279,0-0.506,0.226-0.506,0.506s0.226,0.506,0.506,0.506h1.77
			c0.279,0,0.506-0.226,0.506-0.506S94.774,85.475,94.494,85.475z"/>
		<path fill="#136296" d="M5.506,86.487h1.77c0.279,0,0.506-0.226,0.506-0.506s-0.226-0.506-0.506-0.506h-1.77
			C5.227,85.475,5,85.702,5,85.981S5.227,86.487,5.506,86.487z"/>
		<path fill="#136296" d="M14.658,85.475h-3.691c-0.279,0-0.506,0.226-0.506,0.506s0.226,0.506,0.506,0.506h3.691
			c0.279,0,0.506-0.226,0.506-0.506S14.938,85.475,14.658,85.475z"/>
		<path fill="#136296" d="M20.119,86.487c0.279,0,0.506-0.226,0.506-0.506s-0.226-0.506-0.506-0.506h-1.77
			c-0.279,0-0.506,0.226-0.506,0.506s0.226,0.506,0.506,0.506H20.119z"/>
		<path fill="#136296" d="M76.376,89.855h-2.528c-0.279,0-0.506,0.226-0.506,0.506s0.226,0.506,0.506,0.506h2.528
			c0.279,0,0.506-0.226,0.506-0.506S76.656,89.855,76.376,89.855z"/>
		<path fill="#136296" d="M81.573,90.866h5.197c0.279,0,0.506-0.226,0.506-0.506s-0.226-0.506-0.506-0.506h-5.197
			c-0.279,0-0.506,0.226-0.506,0.506S81.294,90.866,81.573,90.866z"/>
		<path fill="#136296" d="M94.494,89.855h-2.528c-0.279,0-0.506,0.226-0.506,0.506s0.226,0.506,0.506,0.506h2.528
			c0.279,0,0.506-0.226,0.506-0.506S94.774,89.855,94.494,89.855z"/>
		<path fill="#136296" d="M8.034,89.855H5.506C5.227,89.855,5,90.081,5,90.36s0.226,0.506,0.506,0.506h2.528
			c0.279,0,0.506-0.226,0.506-0.506S8.313,89.855,8.034,89.855z"/>
		<path fill="#136296" d="M12.725,90.36c0,0.279,0.226,0.506,0.506,0.506h5.197c0.279,0,0.506-0.226,0.506-0.506
			s-0.226-0.506-0.506-0.506h-5.197C12.951,89.855,12.725,90.081,12.725,90.36z"/>
		<path fill="#136296" d="M26.657,90.36c0-0.279-0.226-0.506-0.506-0.506h-2.528c-0.279,0-0.506,0.226-0.506,0.506
			s0.226,0.506,0.506,0.506h2.528C26.431,90.866,26.657,90.639,26.657,90.36z"/>
		<path fill="#136296" d="M7.276,93.986h-1.77C5.227,93.986,5,94.213,5,94.492s0.226,0.506,0.506,0.506h1.77
			c0.279,0,0.506-0.226,0.506-0.506S7.555,93.986,7.276,93.986z"/>
		<path fill="#136296" d="M14.111,93.986h-3.418c-0.279,0-0.506,0.226-0.506,0.506s0.226,0.506,0.506,0.506h3.418
			c0.279,0,0.506-0.226,0.506-0.506S14.391,93.986,14.111,93.986z"/>
		<path fill="#136296" d="M68.799,93.986h-3.418c-0.279,0-0.506,0.226-0.506,0.506s0.226,0.506,0.506,0.506h3.418
			c0.279,0,0.506-0.226,0.506-0.506S69.078,93.986,68.799,93.986z"/>
		<path fill="#136296" d="M27.783,93.986h-3.418c-0.279,0-0.506,0.226-0.506,0.506s0.226,0.506,0.506,0.506h3.418
			c0.279,0,0.506-0.226,0.506-0.506S28.063,93.986,27.783,93.986z"/>
		<path fill="#136296" d="M75.635,93.986h-3.418c-0.279,0-0.506,0.226-0.506,0.506s0.226,0.506,0.506,0.506h3.418
			c0.279,0,0.506-0.226,0.506-0.506S75.914,93.986,75.635,93.986z"/>
		<path fill="#136296" d="M82.471,93.986h-3.418c-0.279,0-0.506,0.226-0.506,0.506s0.226,0.506,0.506,0.506h3.418
			c0.279,0,0.506-0.226,0.506-0.506S82.75,93.986,82.471,93.986z"/>
		<path fill="#136296" d="M89.307,93.986h-3.418c-0.279,0-0.506,0.226-0.506,0.506s0.226,0.506,0.506,0.506h3.418
			c0.279,0,0.506-0.226,0.506-0.506S89.586,93.986,89.307,93.986z"/>
		<path fill="#136296" d="M61.963,93.986h-3.418c-0.279,0-0.506,0.226-0.506,0.506s0.226,0.506,0.506,0.506h3.418
			c0.279,0,0.506-0.226,0.506-0.506S62.242,93.986,61.963,93.986z"/>
		<path fill="#136296" d="M55.127,93.986h-3.418c-0.279,0-0.506,0.226-0.506,0.506s0.226,0.506,0.506,0.506h3.418
			c0.279,0,0.506-0.226,0.506-0.506S55.406,93.986,55.127,93.986z"/>
		<path fill="#136296" d="M34.619,93.986h-3.418c-0.279,0-0.506,0.226-0.506,0.506s0.226,0.506,0.506,0.506h3.418
			c0.279,0,0.506-0.226,0.506-0.506S34.899,93.986,34.619,93.986z"/>
		<path fill="#136296" d="M20.947,93.986H17.53c-0.279,0-0.506,0.226-0.506,0.506s0.226,0.506,0.506,0.506h3.418
			c0.279,0,0.506-0.226,0.506-0.506S21.227,93.986,20.947,93.986z"/>
		<path fill="#136296" d="M41.455,93.986h-3.418c-0.279,0-0.506,0.226-0.506,0.506s0.226,0.506,0.506,0.506h3.418
			c0.279,0,0.506-0.226,0.506-0.506S41.734,93.986,41.455,93.986z"/>
		<path fill="#136296" d="M48.291,93.986h-3.418c-0.279,0-0.506,0.226-0.506,0.506s0.226,0.506,0.506,0.506h3.418
			c0.279,0,0.506-0.226,0.506-0.506S48.57,93.986,48.291,93.986z"/>
		<path fill="#136296" d="M94.494,93.986h-1.77c-0.279,0-0.506,0.226-0.506,0.506s0.226,0.506,0.506,0.506h1.77
			c0.279,0,0.506-0.226,0.506-0.506S94.774,93.986,94.494,93.986z"/>
		<path fill="#136296" d="M21.282,6.571c0.775,0.249,1.526,0.581,2.234,0.987c0.079,0.046,0.166,0.067,0.251,0.067
			c0.175,0,0.345-0.091,0.439-0.254c0.139-0.242,0.056-0.551-0.187-0.69c-0.769-0.442-1.586-0.803-2.429-1.073
			c-0.266-0.087-0.551,0.061-0.636,0.327C20.869,6.201,21.016,6.486,21.282,6.571z"/>
		<path fill="#136296" d="M11.576,7.663c0.086,0,0.174-0.022,0.254-0.069c0.706-0.411,1.455-0.747,2.228-1.001
			c0.265-0.087,0.41-0.373,0.323-0.638c-0.087-0.265-0.372-0.411-0.638-0.323c-0.84,0.276-1.655,0.641-2.422,1.088
			c-0.241,0.14-0.323,0.45-0.183,0.691C11.232,7.573,11.402,7.663,11.576,7.663z"/>
		<path fill="#136296" d="M16.392,6.083c0.018,0,0.036-0.001,0.054-0.003c0.416-0.044,0.826-0.059,1.258-0.067
			c0.396,0,0.795,0.02,1.186,0.059c0.277,0.027,0.526-0.175,0.554-0.453c0.028-0.278-0.175-0.526-0.453-0.554
			c-0.425-0.043-0.858-0.064-1.287-0.064c-0.449,0.017-0.915,0.024-1.366,0.073c-0.278,0.03-0.479,0.279-0.449,0.556
			C15.917,5.891,16.136,6.083,16.392,6.083z"/>
		<path fill="#136296" d="M29.396,17.705c0,0.82-0.085,1.637-0.253,2.43c-0.058,0.273,0.117,0.541,0.39,0.599
			c0.035,0.007,0.071,0.011,0.105,0.011c0.234,0,0.444-0.163,0.494-0.401c0.182-0.862,0.275-1.75,0.275-2.647l-0.506-0.043h0.506
			c0-0.279-0.226-0.48-0.505-0.48C29.622,17.174,29.396,17.426,29.396,17.705z"/>
		<path fill="#136296" d="M29.057,22.203c-0.254-0.113-0.554,0.001-0.668,0.256c-0.331,0.744-0.743,1.455-1.223,2.115
			c-0.164,0.226-0.115,0.542,0.111,0.706c0.09,0.065,0.194,0.097,0.297,0.097c0.156,0,0.31-0.072,0.409-0.208
			c0.522-0.717,0.969-1.49,1.329-2.299C29.427,22.615,29.312,22.316,29.057,22.203z"/>
		<path fill="#136296" d="M29.133,15.228c0.051,0.237,0.261,0.399,0.494,0.399c0.035,0,0.071-0.004,0.107-0.011
			c0.273-0.059,0.446-0.328,0.388-0.601c-0.187-0.865-0.466-1.714-0.83-2.522c-0.114-0.255-0.414-0.368-0.669-0.253
			c-0.255,0.115-0.368,0.414-0.253,0.669C28.705,13.652,28.962,14.432,29.133,15.228z"/>
		<path fill="#136296" d="M27.139,10.798c0.099,0.135,0.252,0.207,0.408,0.207c0.104,0,0.208-0.032,0.298-0.098
			c0.225-0.165,0.274-0.481,0.109-0.707c-0.523-0.714-1.123-1.375-1.783-1.965c-0.208-0.187-0.528-0.169-0.714,0.04
			c-0.186,0.208-0.168,0.528,0.04,0.714C26.105,9.532,26.657,10.141,27.139,10.798z"/>
		<path fill="#136296" d="M9.893,26.405c-0.208-0.187-0.527-0.169-0.714,0.038c-0.187,0.208-0.17,0.527,0.038,0.714
			c0.659,0.592,1.382,1.117,2.149,1.559c0.079,0.046,0.166,0.068,0.252,0.068c0.175,0,0.345-0.091,0.438-0.253
			c0.139-0.242,0.057-0.551-0.185-0.69C11.165,27.433,10.499,26.95,9.893,26.405z"/>
		<path fill="#136296" d="M6.36,22.225c-0.255,0.114-0.369,0.413-0.255,0.668c0.361,0.806,0.81,1.578,1.333,2.295
			c0.099,0.136,0.253,0.207,0.409,0.207c0.103,0,0.208-0.032,0.298-0.097c0.225-0.165,0.275-0.481,0.11-0.707
			c-0.481-0.659-0.894-1.37-1.227-2.112C6.914,22.225,6.614,22.111,6.36,22.225z"/>
		<path fill="#136296" d="M7.817,11.065c0.157,0,0.311-0.073,0.41-0.209c0.478-0.66,1.027-1.272,1.631-1.82
			c0.207-0.187,0.223-0.507,0.035-0.714C9.706,8.116,9.386,8.1,9.179,8.287c-0.656,0.595-1.253,1.26-1.772,1.976
			c-0.164,0.226-0.113,0.542,0.113,0.706C7.61,11.034,7.714,11.065,7.817,11.065z"/>
		<path fill="#136296" d="M5.661,15.69c0.035,0.007,0.07,0.011,0.104,0.011c0.234,0,0.445-0.164,0.495-0.402
			c0.167-0.797,0.419-1.579,0.749-2.324c0.113-0.255-0.002-0.554-0.257-0.667c-0.255-0.114-0.554,0.002-0.667,0.257
			c-0.359,0.81-0.633,1.661-0.814,2.527C5.213,15.365,5.388,15.633,5.661,15.69z"/>
		<path fill="#136296" d="M5.774,20.77c0.035,0,0.071-0.003,0.106-0.011c0.273-0.058,0.447-0.327,0.389-0.6
			c-0.169-0.793-0.256-1.61-0.258-2.43c-0.001-0.279-0.227-0.504-0.506-0.504c0,0-0.001,0-0.001,0
			C5.225,17.225,4.999,17.452,5,17.731c0.002,0.889,0.096,1.777,0.28,2.639C5.331,20.608,5.541,20.77,5.774,20.77z"/>
		<path fill="#136296" d="M25.532,26.39c-0.606,0.546-1.27,1.03-1.975,1.439c-0.242,0.14-0.324,0.45-0.184,0.691
			c0.094,0.162,0.263,0.252,0.438,0.252c0.086,0,0.173-0.022,0.253-0.068c0.765-0.444,1.487-0.969,2.145-1.563
			c0.207-0.187,0.224-0.507,0.037-0.714C26.059,26.22,25.739,26.203,25.532,26.39z"/>
		<path fill="#136296" d="M21.327,28.825c-0.773,0.252-1.577,0.422-2.389,0.508c-0.278,0.029-0.479,0.278-0.45,0.556
			c0.027,0.26,0.247,0.453,0.502,0.453c0.018,0,0.035-0.001,0.053-0.003c0.883-0.093,1.756-0.278,2.597-0.552
			c0.265-0.086,0.411-0.372,0.324-0.637C21.878,28.884,21.594,28.739,21.327,28.825z"/>
		<path fill="#136296" d="M14.103,28.832c-0.266-0.086-0.551,0.06-0.637,0.325c-0.086,0.266,0.059,0.551,0.325,0.637
			c0.841,0.272,1.715,0.456,2.599,0.547c0.018,0.002,0.035,0.003,0.052,0.003c0.256,0,0.476-0.194,0.502-0.454
			c0.029-0.278-0.174-0.526-0.451-0.554C15.681,29.252,14.877,29.082,14.103,28.832z"/>
		<path fill="#136296" d="M17.704,27.246c5.261,0,9.542-4.28,9.542-9.541s-4.28-9.541-9.542-9.541s-9.542,4.28-9.542,9.541
			S12.443,27.246,17.704,27.246z M17.704,9.175c4.704,0,8.53,3.826,8.53,8.53c0,4.704-3.827,8.53-8.53,8.53s-8.53-3.826-8.53-8.53
			C9.174,13.002,13,9.175,17.704,9.175z"/>
	</g>
</g>
</svg>