<svg xmlns="http://www.w3.org/2000/svg" width="80" height="80" viewBox="0 0 80 80" fill="none" webcrx="">
    <path d="M33.5 63.8182C33.5 69.0636 36.6415 73.5718 41.126 75.5H37C30.6556 75.5 25.5055 70.2335 25.6159 63.8268L25.6159 63.8268L25.616 63.8191L25.7008 15.0918L25.7008 15.0751L25.6998 15.0585C25.513 12.1854 27.5421 9.43457 30.5 9.43457C31.996 9.43457 33.3529 10.0421 34.3459 11.0306C33.5411 12.2178 33.5 13.7154 33.5 15.0909V63.8182Z" fill="#00CA59" stroke="#FCFFF7"/>
    <path d="M36.875 26.875V14.375C36.875 10.9233 34.0767 8.125 30.625 8.125C27.1733 8.125 24.375 10.9233 24.375 14.375V64.375C24.375 71.2786 29.9714 76.875 36.875 76.875H61.875C68.7786 76.875 74.375 71.2786 74.375 64.375V51.875C74.375 44.9714 68.7786 39.375 61.875 39.375H55.625C52.1733 39.375 49.375 42.1733 49.375 45.625C49.375 49.0767 52.1733 51.875 55.625 51.875H61.875" stroke="#00391B" stroke-width="3" stroke-miterlimit="10" stroke-linecap="round" stroke-linejoin="round"/>
    <path d="M61.875 39.375V9.375C61.875 5.92328 64.6733 3.125 68.125 3.125C71.5767 3.125 74.375 5.92328 74.375 9.375V30.2302" stroke="#00391B" stroke-width="3" stroke-miterlimit="10" stroke-linecap="round" stroke-linejoin="round"/>
    <path d="M43.125 45.625C39.6733 45.625 36.875 42.8267 36.875 39.375V26.875C36.875 23.4233 39.6733 20.625 43.125 20.625C46.5767 20.625 49.375 23.4233 49.375 26.875V39.375C49.375 42.8267 46.5767 45.625 43.125 45.625Z" stroke="#00391B" stroke-width="3" stroke-miterlimit="10" stroke-linecap="round" stroke-linejoin="round"/>
    <path d="M49.375 26.875C49.375 23.4233 52.1733 20.625 55.625 20.625C59.0767 20.625 61.875 23.4233 61.875 26.875" stroke="#00391B" stroke-width="3" stroke-miterlimit="10" stroke-linecap="round" stroke-linejoin="round"/>
    <path d="M61.875 51.875C54.9714 51.875 49.375 57.4714 49.375 64.375" stroke="#00391B" stroke-width="3" stroke-miterlimit="10" stroke-linecap="round" stroke-linejoin="round"/>
    <path d="M5.625 3.125L11.875 15.625L5.625 21.875L11.875 34.375" stroke="#F61B00" stroke-width="3" stroke-miterlimit="10" stroke-linecap="round" stroke-linejoin="round"/>
</svg>